<?xml version="1.0" ?><!DOCTYPE svg  PUBLIC '-//W3C//DTD SVG 1.1//EN'  'http://www.w3.org/Graphics/SVG/1.1/DTD/svg11.dtd'><svg height="8.4666mm" style="shape-rendering:geometricPrecision; text-rendering:geometricPrecision; image-rendering:optimizeQuality; fill-rule:evenodd; clip-rule:evenodd" version="1.1" viewBox="0 0 846.66 846.66" width="8.4666mm" xml:space="preserve" xmlns="http://www.w3.org/2000/svg" xmlns:xlink="http://www.w3.org/1999/xlink"><defs><style type="text/css">
   <![CDATA[
    .fil0 {fill:black;fill-rule:nonzero}
   ]]>
  </style></defs><g id="Layer_x0020_1"><path class="fil0" d="M29 17.54l642.61 0c11.46,0 20.76,9.29 20.76,20.76l0 106.7 125.29 0c11.46,0 20.76,9.29 20.76,20.76l0 642.6c0,11.47 -9.3,20.76 -20.76,20.76l-788.66 0c-11.46,0 -20.75,-9.29 -20.75,-20.76l0 -770.06c0,-11.47 9.29,-20.76 20.75,-20.76zm663.37 168.97l0 601.09 104.53 0 0 -601.09 -104.53 0zm-522.63 257.58c-27.3,0 -27.3,-41.52 0,-41.52l361.14 0c27.3,0 27.3,41.52 0,41.52l-361.14 0zm0 252.26c-27.3,0 -27.3,-41.51 0,-41.51l361.14 0c27.3,0 27.3,41.51 0,41.51l-361.14 0zm0 -126.13c-27.3,0 -27.3,-41.51 0,-41.51l361.14 0c27.3,0 27.3,41.51 0,41.51l-361.14 0zm88.96 -459.74l183.22 0c11.46,0 20.76,9.29 20.76,20.76l0 167.29c0,11.46 -9.3,20.75 -20.76,20.75l-183.22 0c-11.47,0 -20.76,-9.29 -20.76,-20.75l0 -167.29c0,-11.47 9.29,-20.76 20.76,-20.76zm162.46 41.51l-141.71 0 0 125.78 141.71 0 0 -125.78zm229.69 -92.93l-601.09 0 0 728.54 601.09 0 0 -728.54z"/></g></svg>